<?xml version="1.0" encoding="iso-8859-1"?>
<!-- Generator: Adobe Illustrator 17.1.0, SVG Export Plug-In . SVG Version: 6.00 Build 0)  -->
<!DOCTYPE svg PUBLIC "-//W3C//DTD SVG 1.1//EN" "http://www.w3.org/Graphics/SVG/1.1/DTD/svg11.dtd">
<svg version="1.1" id="Capa_1" xmlns="http://www.w3.org/2000/svg" xmlns:xlink="http://www.w3.org/1999/xlink" x="0px" y="0px"
	 viewBox="0 0 217.333 217.333" style="enable-background:new 0 0 217.333 217.333;" xml:space="preserve">
<path d="M52.423,90.174c-2.139,1.917-10.351,4.396-18.988,5.789c0.085-0.31,0.182-0.619,0.289-0.928
	c1.99-5.73,7.365-8.513,12.052-8.513c0.376,0,0.749,0.018,1.114,0.054C48.327,86.717,51.574,87.349,52.423,90.174z M217.333,38.921
	v122.343c0,0.422-0.068,0.825-0.167,1.217v15.932c0,2.761-2.239,5-5,5h-207c-2.761,0-5-2.239-5-5v-15.932
	C0.068,162.089,0,161.686,0,161.264V38.921c0-2.761,2.239-5,5-5h207.333C215.094,33.921,217.333,36.159,217.333,38.921z
	 M171.893,70.337c1.134,2.512,4.095,3.63,6.61,2.502c0.943-0.423,2.058-0.803,3.04-1.059c-0.875,2.464-2.285,3.375-2.682,3.59
	c-2.259,0.715-3.536,2.87-3.283,5.237c0.256,2.395,2.362,4.207,4.764,4.393l11.164,0.864c0.131,0.01,0.262,0.016,0.391,0.016
	c2.586,0,4.777-1.993,4.979-4.615c0.213-2.753-1.846-5.158-4.599-5.371l-1.547-0.12c0.513-1.305,0.932-2.787,1.203-4.466
	c0.752-4.66-1.435-7.112-2.805-8.159c-4.533-3.461-11.825-0.748-14.75,0.581C171.868,64.869,170.759,67.824,171.893,70.337z
	 M154.259,119.087c3.746,3.111,8.596,3.943,12.709,3.943c4.22,0,7.666-0.875,8.353-1.062c2.665-0.725,4.237-3.472,3.513-6.137
	s-3.471-4.24-6.137-3.513c-2.688,0.729-9.17,1.466-12.05-0.924c-1.43-1.188-2.022-3.427-1.761-6.655
	c0.29-3.584,1.321-5.945,3.065-7.019c3.049-1.875,8.482-0.366,10.149,0.312c2.543,1.052,5.46-0.153,6.522-2.695
	c1.063-2.548-0.14-5.477-2.688-6.541c-1.126-0.47-11.24-4.458-19.169,0.374c-3.192,1.945-7.145,6.085-7.847,14.761
	C148.247,112.234,151.452,116.756,154.259,119.087z M96.474,118.982c0.197,2.649,2.438,4.677,5.087,4.629
	c2.657-0.054,4.807-2.175,4.896-4.831l0.458-13.617c0.572-4.013,1.614-7.72,3.379-9.59c0.648-0.687,1.249-0.938,2.111-0.935
	c0.841,0.013,1.188,0.255,1.533,0.697c1.859,2.378,2.013,8.413,1.438,14.192c-0.647,3.22-1.084,6.186-1.368,8.469
	c-0.328,2.639,1.467,5.073,4.085,5.539c2.62,0.466,5.143-1.198,5.747-3.788c0.3-1.29,0.987-4.478,1.436-8.435
	c1.788-8.388,4.481-15.568,6.509-16.667c0.255,0.023,0.343,0.102,0.516,0.321c2.36,3.007,1.835,14.458-0.135,23.262
	c-0.605,2.694,1.087,5.369,3.782,5.975c0.369,0.083,0.738,0.123,1.101,0.123c2.287,0,4.351-1.579,4.874-3.904
	c0.857-3.813,4.803-23.262-1.751-31.624c-2.079-2.653-4.965-4.091-8.345-4.159c-3.813-0.083-6.877,2.143-9.299,5.542
	c-0.221-0.346-0.457-0.68-0.707-1c-2.273-2.912-5.475-4.482-9.257-4.543c-1.811-0.025-3.521,0.296-5.104,0.958
	c-0.409-2.269-2.355-4.024-4.753-4.104c-2.765-0.106-5.072,2.069-5.165,4.829l-0.606,18.021
	C95.979,111.312,96.384,117.769,96.474,118.982z M69.075,95.518c0,2.761,2.239,5,5,5h9.296c2.761,0,5-2.239,5-5s-2.239-5-5-5h-9.296
	C71.313,90.518,69.075,92.757,69.075,95.518z M69.075,110.145c0,2.761,2.239,5,5,5h9.296c2.761,0,5-2.239,5-5s-2.239-5-5-5h-9.296
	C71.313,105.145,69.075,107.384,69.075,110.145z M26.231,111.786c3.558,5.984,9.463,10.054,16.2,11.167
	c1.081,0.179,2.121,0.26,3.124,0.26c10.604-0.001,16.749-9.156,17.028-9.582c1.507-2.295,0.869-5.359-1.414-6.884
	c-2.282-1.523-5.38-0.907-6.924,1.365c-0.167,0.244-4.136,5.971-10.183,4.975c-3.821-0.631-7.187-2.968-9.234-6.412
	c-0.145-0.244-0.282-0.49-0.41-0.739c7.562-1.158,21.686-4.063,26.278-10.041c1.483-1.931,2.101-4.141,1.787-6.392
	c-0.984-7.05-6.721-12.105-14.616-12.88c-8.531-0.834-19.563,3.54-23.588,15.131C21.945,98.473,22.657,105.774,26.231,111.786z
	 M207.167,166.264h-197v7.148h197V166.264z"/>
<g>
</g>
<g>
</g>
<g>
</g>
<g>
</g>
<g>
</g>
<g>
</g>
<g>
</g>
<g>
</g>
<g>
</g>
<g>
</g>
<g>
</g>
<g>
</g>
<g>
</g>
<g>
</g>
<g>
</g>
</svg>
